<?xml version="1.0" standalone="no"?><!-- Generator: Gravit.io --><svg xmlns="http://www.w3.org/2000/svg" xmlns:xlink="http://www.w3.org/1999/xlink" style="isolation:isolate" viewBox="108.609 203.23 42.762 53.141" width="42.762" height="53.141"><path d=" M 108.609 256.371 L 140.369 256.371 L 140.369 221.082 C 140.369 220.765 136.654 217.316 135.88 216.541 C 135.505 216.167 134.736 215.166 134.141 215.166 L 108.609 215.166 L 108.609 256.371 Z  M 119.611 208.005 L 122.413 208.005 L 122.413 206.033 L 144.001 206.033 L 144.001 210.392 L 148.568 210.392 L 148.568 241.529 L 147.323 241.529 L 147.323 244.435 L 151.371 244.435 L 151.371 209.042 C 151.371 208.648 150.259 207.819 149.948 207.559 C 149.23 206.959 147.84 205.393 146.987 204.604 C 146.765 204.399 145.542 203.23 145.351 203.23 L 119.611 203.23 L 119.611 208.005 Z  M 114.006 213.817 L 116.808 213.817 L 116.808 211.741 L 138.293 211.741 L 138.293 216.1 L 142.86 216.1 L 142.86 247.237 L 141.718 247.237 L 141.718 250.143 L 145.766 250.143 L 145.766 214.855 C 145.766 214.44 142.056 211.093 141.329 210.366 C 141.053 210.09 140.09 208.939 139.746 208.939 L 114.006 208.939 L 114.006 213.817 Z  M 114.94 232.707 C 114.94 233.338 115.194 233.952 115.667 233.952 L 133.311 233.952 C 134.141 233.952 134.682 231.669 132.792 231.669 L 116.186 231.669 C 115.494 231.669 114.94 232.026 114.94 232.707 Z  M 114.94 242.567 L 114.94 243.189 C 114.94 243.494 115.466 244.02 115.771 244.02 L 133.104 244.02 C 134.424 244.02 134.439 241.736 133 241.736 L 115.978 241.736 C 115.417 241.736 114.94 242.25 114.94 242.567 Z  M 114.94 237.377 C 114.94 237.986 114.998 238.83 115.978 238.83 L 133 238.83 C 134.439 238.83 134.424 236.547 133.104 236.547 L 115.874 236.547 C 115.222 236.547 114.94 237.231 114.94 237.377 Z  M 114.94 227.517 C 114.94 228.105 115.079 228.763 115.874 228.763 L 133.104 228.763 C 134.424 228.763 134.439 226.479 133 226.479 L 115.978 226.479 C 115.395 226.479 114.94 226.934 114.94 227.517 Z  M 114.629 247.652 C 114.629 248.509 114.828 249.002 116.082 249.002 L 132.273 249.002 C 133.512 249.002 133.726 248.499 133.726 247.652 C 133.726 246.884 133.06 246.615 132.273 246.615 L 116.082 246.615 C 115.286 246.615 114.629 246.868 114.629 247.652 Z " fill-rule="evenodd" fill="rgb(47,83,82)"/></svg>