<?xml version="1.0" standalone="no"?><!-- Generator: Gravit.io --><svg xmlns="http://www.w3.org/2000/svg" xmlns:xlink="http://www.w3.org/1999/xlink" style="isolation:isolate" viewBox="277.7 203.23 66.177 65.851" width="66.177" height="65.851"><path d=" M 294.287 228.608 C 294.666 229.553 294.173 230.027 293.77 231.345 L 296.162 232.112 C 296.631 230.892 296.65 230.02 298.283 230.296 C 299.853 230.562 299.751 232.075 299.91 232.87 C 299.921 232.928 299.928 233.042 299.967 233.116 L 302.181 233.633 C 302.873 226.238 297.63 228.431 296.346 227.478 C 294.532 224.821 297.794 224.537 294.27 221.017 C 293.033 219.783 291.291 217.418 289.12 216.951 L 289.894 214.038 C 293.612 214.417 298.307 211.276 299.3 209.306 L 302.184 210.032 C 302.398 213.137 302.633 213.633 304.839 214.883 C 306.634 215.899 308.041 216.954 310.069 217.502 L 310.467 220.158 C 307.879 221.276 307.01 225.48 309.797 227.149 C 310.678 226.651 310.68 226.411 311.477 225.877 C 311.206 224.673 309.981 223.842 311.377 222.59 C 312.764 221.344 313.187 222.517 314.331 222.972 C 315.02 222.051 315.358 222.129 315.841 220.98 C 315.038 220.427 314.356 219.8 312.968 219.535 C 312.519 216.251 312.188 217.739 313.906 215.622 C 314.736 214.598 315.065 212.805 314.412 211.354 C 313.826 210.05 312.681 209.453 311.534 208.817 C 309.592 207.74 307.962 206.239 305.821 206.618 C 304.77 206.804 304.415 207.303 303.874 207.491 C 303.811 207.513 303.723 207.547 303.658 207.562 C 303.593 207.577 303.501 207.594 303.434 207.601 C 303.004 207.646 300.284 207.132 299.635 206.454 C 299.155 205.951 297.707 201.155 292.415 204.281 C 283.59 209.492 288.919 208.248 287.18 214.258 C 286.589 216.303 286.654 217 285.487 218.277 C 282.111 221.971 285.487 224.156 286.727 225.387 C 287.329 225.986 288.911 227.819 289.6 228.218 C 291.787 229.486 292.792 228.009 294.287 228.608 Z  M 285.295 267.163 C 285.847 263.947 285.662 264.564 287.087 262.142 C 283.096 260.267 280.06 252.607 285.849 246.856 C 286.788 245.923 286.851 246.097 287.823 245.341 L 286.233 244.856 L 287.394 240.154 C 276.067 243.066 273.779 261.571 285.295 267.163 Z  M 314.059 237.513 C 311.317 249.861 327.589 259.176 336.597 252.297 C 334.309 251.101 334.618 250.593 333.261 248.572 C 329.087 249.543 326.951 250.259 323.346 247.752 C 320.951 246.087 319.067 243.535 319.009 239.296 C 318.018 239.81 318.376 239.858 317.434 240.356 L 314.251 237.495 C 314.219 237.491 314.12 237.493 314.059 237.513 Z  M 289.399 242.983 C 295.125 244.223 301.978 246.005 302.423 253.409 C 302.634 256.932 300.814 260.267 299.046 261.631 C 294.875 264.849 292.229 263.633 289.425 263.847 C 288.229 265.458 287.891 265.085 288.216 267.771 C 290.184 269.049 290.306 269.18 293.319 269.033 C 295.38 268.933 297.047 268.505 298.748 267.698 C 302.057 266.126 303.833 264.439 305.584 261.526 C 309.226 255.467 307.817 247.566 302.196 242.704 L 303.61 236.989 C 302.472 236.354 293.786 234.063 292.041 233.756 L 289.399 242.983 Z  M 294.81 240.981 L 297.358 241.634 L 298.273 238.217 L 295.879 237.476 L 294.81 240.981 Z  M 310.976 229.848 C 312.07 232.036 315.856 234.438 317.32 236.64 C 319.319 235.784 321.466 232.244 324.554 230.704 C 328.116 228.926 331.909 229.621 334.728 231.608 C 336.851 233.104 339.168 236.381 338.715 240.694 C 338.295 244.695 333.776 248.022 337.279 249.688 C 340.703 251.317 342.77 245.641 343.403 243.194 C 345.239 236.11 341.607 228.799 334.823 225.804 C 330.783 224.02 327.972 224.505 323.749 225.403 L 319.654 221.389 L 310.976 229.848 Z  M 316.087 229.108 C 317.031 229.818 317.652 230.515 318.202 231.315 C 319.345 230.772 319.538 230.373 320.293 229.586 C 319.854 228.602 318.807 227.448 317.594 227.054 C 316.738 227.991 316.532 227.773 316.087 229.108 Z  M 293.296 225.278 C 293.584 222.897 292.078 222.284 290.813 220.984 C 289.56 219.695 287.647 218.47 286.846 220.609 C 286.268 222.153 288.419 223.624 289.24 224.46 C 290.704 225.951 291.005 226.944 293.296 225.278 Z  M 306.136 209.318 C 301.519 211.449 310.154 215.187 311.127 214.76 C 311.647 214.532 313.66 212.894 310.452 211.167 C 309.198 210.492 307.157 208.847 306.136 209.318 Z  M 297.036 208.335 C 297.265 202.613 289.966 208.876 289.882 209.108 C 288.293 213.51 295.409 210.374 297.036 208.335 Z " fill-rule="evenodd" fill="rgb(47,83,82)"/></svg>