<?xml version="1.0" standalone="no"?><!-- Generator: Gravit.io --><svg xmlns="http://www.w3.org/2000/svg" xmlns:xlink="http://www.w3.org/1999/xlink" style="isolation:isolate" viewBox="639.838 203.23 65.093 60.727" width="65.093" height="60.727"><path d=" M 682.294 254.577 C 683.488 253.134 684.966 252.642 685.566 250.102 C 686.206 247.393 685.093 245.862 683.842 244.44 C 686.356 239.852 686.301 240.77 684.456 235.634 C 687.668 235.68 700.047 236.104 702.099 235.129 C 704.001 234.227 705.618 231.728 704.635 228.803 C 704.334 227.906 703.318 226.673 702.633 226.211 C 701.607 225.519 700.34 225.36 698.9 225.341 C 686.67 225.175 674.348 225.561 662.123 225.335 C 663.756 221.367 672.883 204.251 664.401 203.279 C 660.542 202.837 659.417 205.508 657.991 207.449 C 654.94 211.605 652.186 215.442 649.113 219.576 C 647.065 222.33 641.548 229.496 640.608 232.428 C 639.745 235.119 639.625 249.736 640.162 252.866 C 641.098 258.325 645.471 262.41 650.592 263.468 C 654.853 264.349 666.244 263.771 671.301 263.772 C 674.797 263.772 677.866 264.097 680.145 262.105 C 682.18 260.326 683.578 258.169 682.294 254.577 Z " fill-rule="evenodd" fill="rgb(47,83,82)"/></svg>