<?xml version="1.0" standalone="no"?><!-- Generator: Gravit.io --><svg xmlns="http://www.w3.org/2000/svg" xmlns:xlink="http://www.w3.org/1999/xlink" style="isolation:isolate" viewBox="450.926 203.23 81.321 63.993" width="81.321" height="63.993"><path d=" M 522.625 240.271 C 523.656 238.732 527.339 235.416 528.905 233.851 C 529.601 233.155 531.736 231.262 532.05 230.481 C 532.869 228.445 530.986 226.762 529.073 227.795 L 522.414 234.133 C 520.821 235.726 517.416 239.506 515.852 240.554 L 518.889 243.725 L 508.02 254.734 C 506.185 252.044 499.738 246.648 497.798 244.497 L 494.892 241.759 C 493.018 239.809 490.714 236.742 486.405 235.902 C 490.252 235.218 493.79 232.887 495.62 228.717 C 497.678 224.03 496.661 223.041 496.661 221.01 C 494.182 221.216 495.136 222.139 488.477 222.139 C 484.541 222.139 480.99 220.071 478.599 218.47 C 477.725 218.674 477.768 218.808 476.982 219.11 C 476.51 219.293 475.738 219.509 475.254 219.64 C 473.987 219.981 472.688 220.163 470.98 220.163 C 470.952 221.398 470.697 221.223 470.697 223.267 C 470.697 230.511 475.805 234.923 481.512 235.906 C 477.246 236.641 475.215 239 472.602 241.612 C 467.503 246.711 462.629 251.639 457.503 256.71 C 456.678 257.526 456.447 257.648 455.822 258.698 L 450.926 267.223 L 460.576 267.223 L 462.803 263.421 L 470.697 255.511 L 470.697 267.223 L 496.944 267.223 L 496.944 255.793 C 502.746 258.864 505.608 268.99 511.836 262.784 C 514.069 260.56 516.09 258.519 518.322 256.287 C 519.915 254.694 523.319 250.914 524.883 249.867 C 526.032 250.636 527.104 252.514 528.925 250.808 C 530.772 249.079 528.768 247.928 527.988 246.762 C 529.649 243.622 528.972 240.737 525.555 239.856 C 524.298 239.532 523.639 240.035 522.625 240.271 Z  M 469.286 207.746 C 470.137 208.907 473.237 209.798 473.237 210.85 C 473.237 219.251 472.341 215.113 472.109 217.906 C 473.416 217.601 474.554 217.438 475.783 217.064 C 476.969 216.703 477.867 216.185 478.882 215.648 C 482.392 217.998 483.508 219.881 490.17 219.881 C 492.521 219.881 493.967 219.183 495.815 218.752 C 495.661 216.908 494.121 215.955 494.121 215.083 C 494.121 209.603 493.734 210.837 496.041 209.383 C 496.756 208.932 497.946 208.304 498.355 207.746 C 495.635 207.112 485.026 203.23 483.962 203.23 C 482.319 203.23 471.527 207.224 469.286 207.746 Z " fill-rule="evenodd" fill="rgb(47,83,82)"/></svg>