<?xml version="1.0" standalone="no"?><!-- Generator: Gravit.io --><svg xmlns="http://www.w3.org/2000/svg" xmlns:xlink="http://www.w3.org/1999/xlink" style="isolation:isolate" viewBox="122.719 32.869 160.466 161.091" width="160.466" height="161.091"><path d=" M 198.346 52.73 C 185.602 53.999 175.317 57.919 165.915 65.253 C 164.426 66.413 163.224 67.522 161.892 68.69 C 155.538 74.26 149.722 83.27 146.746 91.099 C 139.199 110.948 142.681 132.994 155.572 149.39 C 157.969 152.438 161.707 156.43 164.839 158.834 C 165.568 159.393 166.191 159.922 166.968 160.501 C 188.672 176.662 218.409 176.35 239.964 159.718 C 241.582 158.469 244.469 155.93 245.934 154.434 C 257.808 142.306 264.366 125.287 262.919 107.882 C 261.862 95.166 256.693 82.501 248.679 73.555 C 248.076 72.883 247.488 72.206 246.901 71.539 C 245.589 70.047 242.694 67.463 241.072 66.117 C 229.764 56.731 213.313 51.24 198.346 52.73 Z  M 137.074 135.52 L 139.434 142.525 L 147.115 142.511 L 140.892 146.827 L 143.28 153.823 L 137.074 149.485 L 130.869 153.823 L 133.256 146.827 L 127.033 142.511 L 134.715 142.525 L 137.074 135.52 Z  M 268.8 135.52 L 271.16 142.525 L 278.841 142.511 L 272.618 146.827 L 275.006 153.823 L 268.8 149.485 L 262.594 153.823 L 264.982 146.827 L 258.759 142.511 L 266.44 142.525 L 268.8 135.52 Z  M 142.415 168.366 L 146.286 163.377 L 147.69 164.467 C 146.951 165.817 146.686 167.083 146.891 168.262 C 147.094 169.438 147.753 170.46 148.867 171.324 C 149.672 171.948 150.392 172.29 151.025 172.349 C 151.66 172.409 152.174 172.188 152.57 171.677 C 152.926 171.218 153.053 170.72 152.947 170.181 C 152.846 169.641 152.499 169.011 151.912 168.291 L 150.303 166.312 C 149.149 164.892 148.482 163.663 148.3 162.622 C 148.115 161.584 148.388 160.594 149.114 159.657 C 149.997 158.52 151.101 157.915 152.425 157.845 C 153.747 157.77 155.072 158.25 156.399 159.28 C 157.054 159.787 157.59 160.367 158.007 161.013 C 158.421 161.657 158.734 162.399 158.946 163.242 L 160.259 162.852 L 161.337 163.688 L 157.787 168.262 L 156.422 167.203 C 157.065 165.946 157.294 164.758 157.101 163.642 C 156.912 162.529 156.316 161.581 155.319 160.808 C 154.593 160.244 153.924 159.941 153.313 159.905 C 152.702 159.868 152.207 160.095 151.83 160.582 C 151.511 160.993 151.398 161.43 151.489 161.895 C 151.581 162.36 151.88 162.904 152.392 163.528 L 154.394 165.98 C 155.456 167.276 156.066 168.485 156.221 169.605 C 156.376 170.726 156.077 171.768 155.327 172.735 C 154.44 173.878 153.295 174.486 151.897 174.559 C 150.495 174.631 149.127 174.151 147.788 173.112 C 147.115 172.59 146.541 171.948 146.069 171.187 C 145.597 170.426 145.221 169.529 144.931 168.496 L 143.651 169.326 L 142.415 168.366 Z  M 169.196 183.17 C 168.918 183.72 168.817 184.107 168.892 184.328 C 168.968 184.549 169.312 184.812 169.919 185.119 L 171.102 185.716 L 170.321 187.263 L 162.386 183.255 L 163.167 181.709 L 164.35 182.307 C 164.95 182.61 165.363 182.729 165.58 182.66 C 165.798 182.591 166.046 182.278 166.327 181.722 L 167.791 178.822 L 166.933 172.127 C 166.84 171.417 166.705 170.884 166.516 170.534 C 166.329 170.179 166.048 169.91 165.675 169.722 L 165 169.381 L 165.781 167.835 L 173.004 171.482 L 172.223 173.029 L 171.233 172.529 C 170.921 172.371 170.677 172.29 170.498 172.289 C 170.322 172.286 170.196 172.358 170.122 172.504 C 170.076 172.595 170.048 172.709 170.037 172.84 C 170.028 172.976 170.038 173.134 170.059 173.319 L 170.747 177.68 L 174.857 175.593 C 175.026 175.504 175.155 175.424 175.237 175.355 C 175.322 175.287 175.389 175.206 175.437 175.111 C 175.496 174.992 175.479 174.868 175.384 174.744 C 175.291 174.616 175.123 174.493 174.886 174.373 L 173.685 173.767 L 174.466 172.221 L 180.797 175.418 L 180.017 176.964 L 179.549 176.728 C 179.189 176.546 178.87 176.462 178.585 176.471 C 178.302 176.482 177.944 176.603 177.511 176.835 L 170.66 180.271 L 169.196 183.17 Z  M 181.959 191.472 L 183.069 185.256 L 184.819 185.569 C 184.791 187.107 185.144 188.352 185.874 189.3 C 186.6 190.248 187.659 190.846 189.047 191.094 C 190.049 191.273 190.846 191.241 191.433 190.999 C 192.024 190.757 192.376 190.322 192.49 189.686 C 192.592 189.114 192.473 188.614 192.129 188.186 C 191.789 187.755 191.188 187.358 190.335 186.993 L 187.99 185.988 C 186.309 185.267 185.147 184.489 184.502 183.652 C 183.855 182.818 183.637 181.815 183.846 180.648 C 184.099 179.23 184.795 178.181 185.935 177.505 C 187.072 176.824 188.468 176.634 190.121 176.929 C 190.936 177.074 191.68 177.339 192.35 177.717 C 193.016 178.094 193.638 178.607 194.218 179.254 L 195.199 178.299 L 196.541 178.539 L 195.523 184.238 L 193.822 183.934 C 193.808 182.523 193.459 181.365 192.77 180.466 C 192.085 179.568 191.117 179.005 189.875 178.783 C 188.97 178.622 188.237 178.665 187.678 178.916 C 187.12 179.168 186.788 179.599 186.68 180.204 C 186.589 180.717 186.692 181.156 186.989 181.526 C 187.285 181.895 187.803 182.238 188.546 182.552 L 191.458 183.794 C 193.001 184.448 194.103 185.235 194.761 186.155 C 195.418 187.076 195.638 188.138 195.423 189.342 C 195.168 190.767 194.437 191.836 193.232 192.551 C 192.024 193.266 190.589 193.477 188.921 193.179 C 188.084 193.029 187.277 192.727 186.505 192.272 C 185.733 191.818 184.983 191.198 184.247 190.418 L 183.5 191.747 L 181.959 191.472 Z  M 207.535 180.127 L 207.236 180.159 C 206.024 180.29 205.179 180.748 204.706 181.533 C 204.233 182.322 204.074 183.531 204.227 185.162 L 202.482 185.35 L 201.801 179.05 L 216.125 177.503 L 216.805 183.803 L 215.06 183.991 C 214.871 182.384 214.461 181.244 213.827 180.567 C 213.196 179.89 212.272 179.615 211.063 179.746 L 210.73 179.782 L 211.854 190.184 C 211.92 190.797 212.045 191.176 212.229 191.321 C 212.413 191.466 212.844 191.499 213.521 191.426 L 214.816 191.286 L 215.002 193.008 L 206.186 193.961 L 206 192.238 L 207.318 192.096 C 207.987 192.024 208.398 191.899 208.543 191.723 C 208.688 191.547 208.725 191.149 208.659 190.53 L 207.535 180.127 Z  M 226.172 191.028 L 225.5 189.431 L 226.32 189.087 C 226.943 188.824 227.301 188.587 227.389 188.377 C 227.478 188.166 227.398 187.771 227.155 187.193 L 223.663 178.894 C 223.423 178.323 223.197 177.993 222.986 177.914 C 222.774 177.83 222.354 177.919 221.731 178.182 L 220.911 178.527 L 220.24 176.93 L 234.107 171.095 L 236.467 176.705 L 234.871 177.376 C 234.154 175.79 233.44 174.829 232.735 174.495 C 232.026 174.163 230.937 174.308 229.463 174.928 L 226.08 176.352 L 227.901 180.68 L 228.7 180.344 C 229.582 179.972 230.095 179.576 230.244 179.154 C 230.389 178.735 230.265 177.962 229.869 176.835 L 231.462 176.152 L 234.437 183.222 L 232.836 183.884 C 232.264 182.702 231.771 181.991 231.347 181.757 C 230.925 181.518 230.277 181.585 229.402 181.953 L 228.582 182.298 L 230.669 187.256 L 234.36 185.703 C 235.593 185.185 236.319 184.541 236.538 183.777 C 236.756 183.013 236.555 181.721 235.932 179.898 L 237.528 179.226 L 240.039 185.193 L 226.172 191.028 Z  M 258.652 172.014 L 257.514 170.708 L 258.287 170.034 C 258.797 169.59 259.06 169.255 259.078 169.027 C 259.097 168.8 258.902 168.45 258.493 167.98 L 252.002 160.529 L 256.842 173.592 L 255.704 174.582 L 243.479 167.612 L 250.14 175.257 C 250.549 175.727 250.867 175.97 251.095 175.983 C 251.323 175.996 251.693 175.779 252.203 175.335 L 252.89 174.736 L 254.029 176.042 L 248.649 180.729 L 247.511 179.423 L 248.132 178.881 C 248.639 178.44 248.905 178.102 248.923 177.875 C 248.942 177.647 248.745 177.299 248.335 176.83 L 242.421 170.041 C 242.011 169.571 241.694 169.328 241.466 169.315 C 241.238 169.302 240.868 169.519 240.361 169.961 L 239.739 170.502 L 238.601 169.196 L 243.964 164.524 L 253.052 169.768 L 249.395 159.792 L 254.534 155.315 L 255.672 156.621 L 255.016 157.193 C 254.503 157.64 254.235 157.979 254.216 158.212 C 254.197 158.445 254.391 158.795 254.796 159.259 L 260.71 166.048 C 261.115 166.513 261.435 166.753 261.668 166.766 C 261.902 166.779 262.275 166.56 262.788 166.113 L 263.444 165.542 L 264.582 166.848 L 258.652 172.014 Z  M 132.652 118.073 L 132.372 116.133 C 134.408 115.988 136.051 116.384 137.311 117.315 C 138.566 118.247 139.328 119.642 139.596 121.5 C 139.757 122.609 139.729 123.634 139.513 124.583 C 139.296 125.528 138.885 126.405 138.272 127.211 C 137.614 128.101 136.808 128.82 135.858 129.364 C 134.905 129.913 133.85 130.268 132.689 130.436 C 131.523 130.605 130.423 130.564 129.393 130.318 C 128.363 130.068 127.398 129.608 126.498 128.936 C 125.685 128.328 125.032 127.608 124.54 126.777 C 124.048 125.95 123.73 125.029 123.584 124.017 C 123.467 123.208 123.485 122.427 123.634 121.676 C 123.786 120.925 124.075 120.165 124.502 119.397 L 123.086 119.137 L 122.851 117.509 L 129.055 116.612 L 129.306 118.35 C 127.884 118.735 126.827 119.361 126.142 120.227 C 125.458 121.097 125.199 122.125 125.371 123.313 C 125.572 124.701 126.282 125.708 127.505 126.337 C 128.728 126.967 130.319 127.14 132.282 126.856 C 134.147 126.587 135.531 125.987 136.433 125.055 C 137.338 124.121 137.686 122.943 137.481 121.521 C 137.32 120.412 136.83 119.566 136.004 118.982 C 135.183 118.398 134.064 118.096 132.652 118.073 Z  M 129.678 106.935 L 129.999 104.256 C 130.128 103.181 130.041 102.371 129.735 101.826 C 129.433 101.28 128.882 100.962 128.086 100.867 C 127.267 100.769 126.654 100.936 126.246 101.373 C 125.834 101.81 125.558 102.615 125.418 103.784 L 125.106 106.387 L 129.678 106.935 Z  M 135.446 107.626 C 136.061 107.699 136.455 107.662 136.637 107.516 C 136.819 107.369 136.953 106.957 137.034 106.278 L 137.162 105.214 L 138.882 105.42 L 137.906 113.568 L 136.186 113.362 L 136.292 112.479 C 136.372 111.808 136.343 111.38 136.204 111.198 C 136.065 111.017 135.686 110.891 135.064 110.817 L 126.127 109.746 C 125.508 109.672 125.11 109.705 124.933 109.848 C 124.755 109.992 124.625 110.401 124.545 111.072 L 124.439 111.955 L 122.719 111.749 L 123.805 102.677 C 124.033 100.775 124.5 99.4 125.207 98.547 C 125.917 97.699 126.889 97.348 128.126 97.496 C 129.216 97.627 130.044 98.097 130.608 98.911 C 131.173 99.721 131.455 100.853 131.453 102.307 C 131.745 101.24 132.142 100.518 132.646 100.138 C 133.154 99.763 133.969 99.604 135.098 99.663 L 136.472 99.728 C 137.008 99.754 137.359 99.731 137.533 99.653 C 137.707 99.577 137.809 99.429 137.835 99.21 C 137.887 98.773 137.086 98.439 135.429 98.21 C 135.399 98.207 135.376 98.204 135.365 98.203 L 135.537 96.766 C 135.634 96.762 135.737 96.763 135.843 96.771 C 135.949 96.78 136.104 96.799 136.303 96.823 C 137.696 96.99 138.68 97.364 139.261 97.946 C 139.842 98.525 140.067 99.363 139.936 100.453 C 139.829 101.351 139.499 102.027 138.944 102.477 C 138.389 102.923 137.674 103.113 136.792 103.034 L 135.003 102.889 C 133.813 102.792 132.975 102.956 132.494 103.388 C 132.01 103.82 131.689 104.708 131.528 106.054 L 131.398 107.141 L 135.446 107.626 Z  M 140.495 96.094 L 138.851 95.549 L 139.159 94.619 C 139.372 93.977 139.429 93.551 139.329 93.346 C 139.229 93.141 138.882 92.942 138.291 92.746 L 129.744 89.914 C 129.152 89.717 128.756 89.67 128.553 89.775 C 128.35 89.88 128.142 90.255 127.929 90.897 L 127.62 91.827 L 125.976 91.283 L 128.572 83.45 L 130.216 83.994 L 129.909 84.921 C 129.695 85.567 129.638 85.992 129.739 86.197 C 129.839 86.403 130.185 86.602 130.776 86.798 L 139.323 89.63 C 139.915 89.826 140.312 89.873 140.515 89.768 C 140.717 89.664 140.926 89.289 141.14 88.643 L 141.447 87.716 L 143.091 88.261 L 140.495 96.094 Z  M 150.04 75.694 L 148.581 74.759 L 149.134 73.895 C 149.498 73.326 149.657 72.931 149.61 72.707 C 149.564 72.484 149.28 72.202 148.755 71.866 L 140.433 66.538 L 148.745 77.716 L 147.931 78.986 L 134.241 75.728 L 142.781 81.196 C 143.306 81.532 143.678 81.676 143.901 81.624 C 144.123 81.573 144.418 81.261 144.782 80.691 L 145.274 79.923 L 146.733 80.858 L 142.886 86.866 L 141.426 85.932 L 141.871 85.238 C 142.234 84.672 142.394 84.273 142.348 84.05 C 142.302 83.826 142.015 83.548 141.49 83.212 L 133.907 78.356 C 133.382 78.02 133.01 77.876 132.787 77.928 C 132.565 77.98 132.27 78.292 131.908 78.858 L 131.463 79.552 L 130.004 78.618 L 133.84 72.629 L 144.034 75.11 L 137.724 66.562 L 141.399 60.822 L 142.858 61.756 L 142.389 62.489 C 142.022 63.062 141.86 63.463 141.908 63.692 C 141.955 63.921 142.239 64.202 142.758 64.534 L 150.341 69.39 C 150.859 69.722 151.233 69.862 151.461 69.809 C 151.689 69.757 151.986 69.441 152.352 68.869 L 152.821 68.136 L 154.28 69.07 L 150.04 75.694 Z  M 155.602 68.621 L 154.424 67.35 L 155.142 66.684 C 155.638 66.224 155.893 65.879 155.904 65.65 C 155.915 65.422 155.708 65.081 155.284 64.624 L 149.16 58.023 C 148.736 57.567 148.412 57.334 148.183 57.328 C 147.955 57.322 147.591 57.551 147.095 58.01 L 146.377 58.677 L 145.199 57.407 L 151.248 51.795 L 152.426 53.065 L 151.711 53.729 C 151.212 54.191 150.957 54.537 150.946 54.765 C 150.935 54.993 151.142 55.334 151.566 55.791 L 157.69 62.392 C 158.114 62.848 158.439 63.081 158.667 63.087 C 158.895 63.093 159.259 62.864 159.757 62.402 L 160.473 61.738 L 161.651 63.008 L 155.602 68.621 Z  M 175.501 53.814 L 172.761 55.507 L 159.739 48.906 L 164.637 56.83 C 164.964 57.36 165.241 57.649 165.464 57.699 C 165.687 57.749 166.084 57.597 166.66 57.241 L 167.552 56.69 L 168.462 58.164 L 162.063 62.119 L 161.152 60.645 L 162.064 60.082 C 162.639 59.726 162.953 59.439 163.008 59.217 C 163.063 58.995 162.928 58.618 162.6 58.089 L 157.867 50.429 C 157.539 49.899 157.263 49.61 157.04 49.56 C 156.817 49.51 156.419 49.662 155.844 50.017 L 155.007 50.535 L 154.096 49.061 L 159.665 45.62 L 171.262 51.507 L 167.078 44.736 C 166.75 44.206 166.477 43.916 166.254 43.866 C 166.031 43.816 165.633 43.968 165.061 44.321 L 164.144 44.888 L 163.233 43.415 L 169.38 39.616 L 170.291 41.089 L 169.667 41.475 C 169.085 41.834 168.768 42.124 168.712 42.351 C 168.656 42.578 168.79 42.955 169.114 43.478 L 175.501 53.814 Z  M 185.573 43.727 L 182.271 39.144 L 181.922 44.72 L 185.573 43.727 Z  M 177.717 52.784 L 177.262 51.113 L 177.721 50.988 C 178.278 50.837 178.669 50.624 178.89 50.352 C 179.111 50.079 179.247 49.636 179.297 49.024 L 180.24 36.247 L 183.334 35.406 L 190.907 45.867 C 191.341 46.477 191.684 46.825 191.933 46.903 C 192.179 46.981 192.561 46.952 193.078 46.812 L 193.518 46.692 L 193.973 48.364 L 186.336 50.441 L 185.881 48.769 L 187.073 48.445 C 187.553 48.314 187.868 48.185 188.014 48.055 C 188.157 47.93 188.201 47.756 188.142 47.54 C 188.121 47.463 188.085 47.374 188.032 47.282 C 187.98 47.19 187.887 47.05 187.756 46.873 L 186.647 45.301 L 181.782 46.624 L 181.654 48.658 C 181.653 48.714 181.648 48.794 181.643 48.906 C 181.625 49.131 181.629 49.288 181.652 49.376 C 181.705 49.57 181.811 49.683 181.97 49.719 C 182.128 49.75 182.468 49.697 182.982 49.558 L 184.122 49.248 L 184.576 50.919 L 177.717 52.784 Z  M 194.084 33.078 L 202.287 32.869 L 202.331 34.601 L 201.26 34.628 C 200.577 34.646 200.154 34.736 199.991 34.904 C 199.827 35.071 199.754 35.465 199.769 36.08 L 200.034 46.494 L 202.886 46.422 C 203.904 46.396 204.662 46.289 205.162 46.102 C 205.663 45.914 206.016 45.613 206.23 45.2 C 206.437 44.8 206.584 44.317 206.672 43.753 C 206.761 43.184 206.797 42.507 206.776 41.72 L 206.77 41.443 L 208.524 41.399 L 208.692 48.007 L 194.472 48.369 L 194.428 46.637 L 195.317 46.614 C 195.993 46.597 196.413 46.507 196.572 46.343 C 196.731 46.179 196.801 45.786 196.785 45.163 L 196.556 36.162 C 196.541 35.539 196.451 35.15 196.284 34.994 C 196.116 34.839 195.693 34.77 195.017 34.787 L 194.128 34.809 L 194.084 33.078 Z  M 227.494 40.114 C 227.69 39.523 227.734 39.125 227.629 38.923 C 227.524 38.72 227.153 38.512 226.511 38.299 L 225.494 37.962 L 226.039 36.318 L 233.677 38.852 L 233.132 40.496 L 232.479 40.279 C 231.837 40.066 231.415 40.01 231.21 40.111 C 231.004 40.211 230.806 40.557 230.61 41.148 L 228.319 48.054 C 227.973 49.096 227.628 49.858 227.281 50.335 C 226.934 50.817 226.497 51.192 225.964 51.472 C 225.435 51.749 224.812 51.89 224.089 51.898 C 223.367 51.903 222.616 51.778 221.833 51.518 C 220.481 51.07 219.49 50.365 218.854 49.397 C 218.221 48.435 218.079 47.427 218.427 46.378 C 218.651 45.703 219.007 45.233 219.498 44.971 C 219.986 44.705 220.548 44.679 221.179 44.889 C 221.687 45.057 222.049 45.353 222.265 45.777 C 222.484 46.202 222.512 46.66 222.349 47.154 C 222.189 47.634 221.939 47.979 221.6 48.191 C 221.262 48.403 220.829 48.487 220.303 48.445 C 220.505 48.764 220.722 49.017 220.963 49.208 C 221.198 49.402 221.481 49.552 221.805 49.66 C 222.642 49.937 223.3 49.92 223.781 49.607 C 224.261 49.293 224.69 48.567 225.066 47.435 L 227.494 40.114 Z  M 238.151 44.393 C 238.475 43.861 238.61 43.485 238.554 43.264 C 238.497 43.043 238.182 42.757 237.605 42.405 L 236.978 42.024 L 237.879 40.544 L 244.674 44.682 L 243.773 46.161 L 242.939 45.654 C 242.352 45.296 241.947 45.143 241.719 45.195 C 241.492 45.248 241.217 45.539 240.896 46.065 L 237.089 52.318 C 236.534 53.23 236.345 54.022 236.529 54.691 C 236.711 55.357 237.283 55.981 238.24 56.564 C 239.145 57.115 239.963 57.315 240.688 57.16 C 241.415 57.011 242.039 56.506 242.56 55.649 L 246.368 49.396 C 246.692 48.864 246.827 48.488 246.77 48.267 C 246.714 48.046 246.395 47.758 245.818 47.406 L 245.058 46.944 L 245.959 45.464 L 251.937 49.104 L 251.036 50.583 L 250.429 50.214 C 249.851 49.862 249.453 49.713 249.23 49.765 C 249.008 49.816 248.736 50.109 248.412 50.641 L 244.604 56.894 C 243.71 58.364 242.586 59.215 241.239 59.448 C 239.888 59.68 238.371 59.285 236.693 58.264 C 235.025 57.248 233.993 56.095 233.593 54.802 C 233.192 53.508 233.445 52.123 234.344 50.646 L 238.151 44.393 Z  M 245.203 63.2 L 249.918 58.999 L 251.101 60.327 C 250.128 61.519 249.637 62.716 249.624 63.912 C 249.609 65.106 250.072 66.231 251.01 67.283 C 251.687 68.043 252.333 68.511 252.945 68.683 C 253.559 68.859 254.104 68.734 254.586 68.304 C 255.02 67.918 255.235 67.451 255.229 66.902 C 255.229 66.353 255.002 65.669 254.556 64.856 L 253.334 62.616 C 252.458 61.01 252.026 59.68 252.035 58.624 C 252.042 57.569 252.491 56.645 253.376 55.857 C 254.451 54.899 255.647 54.504 256.961 54.677 C 258.275 54.844 259.491 55.557 260.608 56.811 C 261.159 57.429 261.581 58.097 261.874 58.808 C 262.164 59.516 262.337 60.304 262.392 61.171 L 263.753 61.026 L 264.661 62.044 L 260.338 65.896 L 259.188 64.606 C 260.049 63.487 260.491 62.361 260.505 61.229 C 260.521 60.1 260.108 59.058 259.268 58.117 C 258.657 57.43 258.054 57.011 257.46 56.864 C 256.865 56.717 256.338 56.85 255.879 57.26 C 255.49 57.606 255.3 58.015 255.305 58.489 C 255.31 58.963 255.504 59.553 255.894 60.259 L 257.416 63.034 C 258.225 64.502 258.605 65.802 258.554 66.932 C 258.502 68.062 258.018 69.032 257.105 69.846 C 256.024 70.809 254.788 71.198 253.4 71.016 C 252.008 70.831 250.75 70.11 249.623 68.844 C 249.057 68.209 248.609 67.473 248.283 66.639 C 247.957 65.805 247.751 64.854 247.654 63.785 L 246.245 64.369 L 245.203 63.2 Z  M 269.52 71.679 L 269.37 71.419 C 268.762 70.362 268.002 69.774 267.093 69.657 C 266.181 69.543 265.009 69.884 263.579 70.681 L 262.703 69.16 L 268.195 65.998 L 275.384 78.483 L 269.892 81.645 L 269.016 80.124 C 270.411 79.303 271.29 78.469 271.653 77.615 C 272.018 76.765 271.897 75.808 271.29 74.755 L 271.124 74.465 L 262.056 79.686 C 261.523 79.993 261.225 80.261 261.167 80.487 C 261.109 80.714 261.252 81.122 261.592 81.712 L 262.242 82.841 L 260.741 83.705 L 256.316 76.021 L 257.817 75.156 L 258.479 76.305 C 258.814 76.888 259.094 77.214 259.313 77.276 C 259.533 77.338 259.912 77.212 260.452 76.901 L 269.52 71.679 Z  M 262.306 87.269 L 263.935 86.681 L 264.268 87.603 C 264.497 88.239 264.716 88.609 264.921 88.708 C 265.127 88.808 265.522 88.75 266.108 88.539 L 274.578 85.483 C 275.164 85.272 275.505 85.064 275.6 84.856 C 275.695 84.648 275.627 84.225 275.397 83.588 L 275.064 82.666 L 276.694 82.079 L 279.494 89.841 L 277.864 90.429 L 277.533 89.51 C 277.302 88.871 277.084 88.501 276.879 88.402 C 276.673 88.302 276.278 88.36 275.692 88.571 L 267.222 91.627 C 266.636 91.838 266.295 92.046 266.2 92.254 C 266.105 92.461 266.174 92.885 266.404 93.525 L 266.736 94.444 L 265.106 95.032 L 262.306 87.269 Z  M 273.378 107.548 L 273.681 109.485 C 271.646 109.653 269.999 109.276 268.729 108.359 C 267.462 107.443 266.684 106.057 266.395 104.202 C 266.221 103.095 266.238 102.069 266.443 101.118 C 266.649 100.171 267.049 99.289 267.653 98.476 C 268.301 97.579 269.098 96.85 270.042 96.295 C 270.989 95.735 272.039 95.367 273.199 95.186 C 274.362 95.004 275.463 95.032 276.495 95.267 C 277.529 95.505 278.498 95.953 279.406 96.616 C 280.226 97.214 280.887 97.926 281.389 98.751 C 281.891 99.572 282.219 100.49 282.377 101.5 C 282.503 102.307 282.494 103.089 282.354 103.841 C 282.211 104.595 281.93 105.358 281.512 106.13 L 282.931 106.374 L 283.185 107.999 L 276.991 108.967 L 276.72 107.233 C 278.138 106.831 279.188 106.194 279.863 105.319 C 280.537 104.441 280.783 103.41 280.598 102.224 C 280.381 100.839 279.66 99.84 278.429 99.225 C 277.199 98.61 275.606 98.455 273.646 98.762 C 271.784 99.053 270.408 99.668 269.517 100.611 C 268.622 101.554 268.288 102.737 268.51 104.156 C 268.683 105.263 269.184 106.104 270.016 106.678 C 270.844 107.252 271.966 107.542 273.378 107.548 Z  M 267.992 112.14 L 269.71 112.36 L 269.597 113.242 C 269.511 113.913 269.536 114.341 269.674 114.524 C 269.811 114.706 270.193 114.835 270.815 114.915 L 279.746 116.061 C 280.36 116.14 280.759 116.111 280.934 115.969 C 281.113 115.827 281.246 115.419 281.332 114.748 L 281.445 113.866 L 283.163 114.087 L 281.248 129.009 L 275.211 128.235 L 275.432 126.517 C 277.163 126.693 278.353 126.558 278.996 126.115 C 279.639 125.67 280.06 124.655 280.264 123.069 L 280.731 119.428 L 276.074 118.83 L 275.963 119.69 C 275.841 120.639 275.927 121.282 276.217 121.622 C 276.507 121.958 277.237 122.239 278.411 122.463 L 278.202 124.183 L 270.594 123.207 L 270.825 121.49 C 272.134 121.589 272.997 121.519 273.412 121.27 C 273.831 121.025 274.098 120.431 274.219 119.489 L 274.332 118.607 L 268.997 117.922 L 268.487 121.894 C 268.317 123.221 268.508 124.172 269.06 124.745 C 269.61 125.317 270.829 125.792 272.719 126.168 L 272.498 127.886 L 266.077 127.062 L 267.992 112.14 Z  M 199.703 61.184 C 191.627 61.778 185.806 63.619 179.516 66.686 C 176.349 68.23 170.743 71.972 168.128 74.535 C 166.909 75.73 166.112 76.55 164.864 77.812 C 160.935 81.783 157.084 88.366 154.979 93.567 C 152.322 100.131 150.961 107.907 151.479 115.828 C 153.259 143.048 176.724 165.621 206.276 163.767 C 233.459 162.062 256.31 138.656 254.438 109.283 C 253.952 101.659 251.931 95.049 248.919 89.148 C 247.397 86.166 245.753 83.678 243.958 81.285 C 242.807 79.75 240.798 77.493 239.435 76.126 C 229.272 65.938 214.424 60.103 199.703 61.184 Z  M 201.594 73.56 C 201.661 74.443 201.598 77.375 201.325 78.026 C 200.867 78.219 195.77 78.421 194.649 78.558 C 189.189 79.224 185.947 80.754 182.64 81.194 C 180.527 81.475 177.617 81.32 175.398 81.319 C 174.79 81.147 175.445 79.793 173.696 78.663 C 170.588 76.655 167.125 80.277 169.061 83.17 C 169.413 83.697 169.814 83.835 170.111 84.29 L 158.223 123.78 C 158.036 124.392 157.858 125.016 157.65 125.689 C 157.329 126.723 157.007 126.416 157.404 127.669 C 161.645 141.042 177.887 142.926 184.757 131.203 C 185.378 130.142 185.901 129.005 186.352 127.682 C 186.795 126.381 186.582 126.906 186.215 125.819 C 185.975 125.106 185.812 124.49 185.61 123.814 L 178.368 100.037 C 177.963 98.71 173.721 85.114 173.565 84.118 C 174.968 83.473 173.002 83.54 176.583 83.722 C 180.985 83.945 182.799 83.844 187.225 83.139 C 191.426 82.469 196.745 81.89 201.181 82.042 L 198.316 137.547 C 197.627 137.87 195.246 138.321 194.211 138.7 C 191.101 139.839 186.521 142.677 185.896 146.053 C 189.396 148.771 197.545 149.198 202.877 149.193 C 208.473 149.189 215.214 148.885 219.891 146.091 C 219.36 142.997 214.572 139.84 211.514 138.721 L 207.475 137.547 C 207.169 137.257 205.311 97.991 205.205 96.062 C 204.957 91.554 204.489 86.474 204.508 82.022 C 209.393 82.093 213.824 82.39 218.54 83.143 C 224.126 84.035 225.68 83.928 230.955 83.571 C 231.665 83.523 231.672 83.742 232.192 84.159 C 232.175 84.866 230.263 90.858 229.9 92.078 C 229.108 94.735 228.283 97.344 227.503 100.024 C 225.954 105.349 224.346 110.626 222.716 115.907 L 219.76 125.755 C 219.376 126.925 219.099 126.248 219.51 127.59 C 219.937 128.981 220.412 130.076 221.091 131.24 C 227.754 142.648 243.79 141.367 248.484 127.657 C 248.912 126.407 248.697 126.92 248.349 125.839 L 245.329 115.91 C 244.968 114.721 235.911 85.367 235.693 84.103 C 239.298 82.457 236.258 76.324 232.312 78.527 C 231.389 79.042 230.779 79.91 230.631 81.303 C 223.756 81.588 223.493 81.433 217.445 79.805 C 213.193 78.66 208.974 78.191 204.329 78.113 L 204.041 73.692 C 204.869 73.114 206.591 72.414 206.267 70.042 C 205.795 66.577 200.578 66.265 199.747 69.774 C 199.228 71.964 200.693 72.846 201.594 73.56 Z  M 229.216 124.564 C 226.866 124.763 224.452 124.927 222.302 125.56 C 218.164 126.778 221.453 127.909 223.692 128.372 C 228.179 129.3 234.039 129.344 238.729 129.044 C 241.017 128.897 243.467 128.648 245.576 128.035 C 249.582 126.872 246.649 125.745 244.254 125.243 C 239.994 124.351 233.644 124.189 229.216 124.564 Z  M 221.658 125.029 C 223.994 124.548 223.96 124.184 227.421 123.744 C 231.357 123.244 236.808 123.247 240.732 123.76 C 244.123 124.203 244.778 124.771 246.4 125.073 C 246.148 123.766 245.336 121.599 244.903 120.258 C 243.2 114.979 234.348 86.734 233.91 86.253 L 221.658 125.029 Z  M 168.903 124.486 C 166.339 124.704 164.263 124.699 161.727 125.2 C 159.566 125.627 156.05 126.717 159.979 127.977 C 163.806 129.205 170.466 129.292 174.748 129.142 C 177.138 129.059 179.562 128.848 181.825 128.418 C 183.885 128.027 187.629 126.888 183.652 125.621 C 180.246 124.534 172.7 124.164 168.903 124.486 Z  M 159.585 125.067 C 165.448 123.078 175.175 122.79 181.59 124.285 C 182.559 124.511 183.43 124.877 184.264 125.078 L 171.905 86.269 C 171.462 86.834 166.395 103.38 165.677 105.583 L 161.061 120.198 C 160.712 121.269 159.671 124.133 159.585 125.067 Z  M 202.746 154.611 C 207.935 154.618 213.123 154.158 217.804 152.74 C 220.195 152.016 225.321 150.043 223.623 147.027 C 223.235 146.337 222.201 145.44 221.355 145.14 C 222.564 146.637 222.343 147.526 220.112 148.632 C 213.024 152.149 192.636 152.166 185.865 148.677 C 185.153 148.31 184.389 147.858 184.06 147.332 C 183.434 146.331 184.128 145.706 184.548 145.145 C 183.109 145.669 180.812 147.647 182.676 149.896 C 185.788 153.651 198.019 154.605 202.746 154.611 Z " fill-rule="evenodd" fill="rgb(125,0,0)"/></svg>